<svg width="108" height="108" viewBox="0 0 108 108" fill="none" xmlns="http://www.w3.org/2000/svg">
<g clip-path="url(#clip0_23_130)" filter="url(#filter0_d_23_130)">
<path d="M4 54C4 26.3858 26.3858 4 54 4C81.6142 4 104 26.3858 104 54C104 81.6142 81.6142 104 54 104C26.3858 104 4 81.6142 4 54Z" fill="black"/>
<path d="M19.9998 36.0002V69.6002H24.7998V36.0002H19.9998ZM29.5998 36.0002V69.6002H34.3998V36.0002H29.5998ZM39.1998 36.0002V69.6002H43.9998V36.0002H39.1998ZM48.7998 36.0002V69.6002H53.5998V36.0002H48.7998ZM58.3998 36.0002V40.8002H91.9998V36.0002H58.3998ZM58.3998 45.6002V50.4002H91.9998V45.6002H58.3998ZM58.3998 55.2002V60.0002H91.9998V55.2002H58.3998ZM58.3998 64.8002V69.6002H91.9998V64.8002H58.3998Z" fill="white"/>
</g>
<defs>
<filter id="filter0_d_23_130" x="0" y="0" width="108" height="108" filterUnits="userSpaceOnUse" color-interpolation-filters="sRGB">
<feFlood flood-opacity="0" result="BackgroundImageFix"/>
<feColorMatrix in="SourceAlpha" type="matrix" values="0 0 0 0 0 0 0 0 0 0 0 0 0 0 0 0 0 0 127 0" result="hardAlpha"/>
<feOffset/>
<feGaussianBlur stdDeviation="2"/>
<feComposite in2="hardAlpha" operator="out"/>
<feColorMatrix type="matrix" values="0 0 0 0 0 0 0 0 0 0 0 0 0 0 0 0 0 0 0.25 0"/>
<feBlend mode="normal" in2="BackgroundImageFix" result="effect1_dropShadow_23_130"/>
<feBlend mode="normal" in="SourceGraphic" in2="effect1_dropShadow_23_130" result="shape"/>
</filter>
<clipPath id="clip0_23_130">
<rect width="100" height="100" fill="white" transform="translate(4 4)"/>
</clipPath>
</defs>
</svg>
