<svg width="20" height="21" viewBox="0 0 20 21" fill="none" xmlns="http://www.w3.org/2000/svg">
<g clip-path="url(#clip0_262_1471)">
<path d="M3.37381 20.1806C2.526 20.1806 1.71199 19.8298 1.06324 19.1804C-0.375193 17.7373 -0.375193 15.3901 1.06291 13.9479L12.2792 2.03728C14.0292 0.284467 16.7098 0.441967 18.666 2.40072C19.5426 3.27884 20.0345 4.54478 20.016 5.87541C19.9976 7.19199 19.4832 8.45197 18.6041 9.33259L10.1273 18.357C9.89133 18.6098 9.49571 18.6213 9.24385 18.3842C8.9926 18.1467 8.98041 17.7504 9.21729 17.4985L17.707 8.4604C18.371 7.79509 18.752 6.85132 18.766 5.85789C18.7801 4.86384 18.421 3.92664 17.7823 3.28632C16.5823 2.08382 14.6285 1.45414 13.176 2.91007L1.96006 14.8207C0.995686 15.7876 0.995998 17.3404 1.94756 18.2944C2.39379 18.741 2.92348 18.9585 3.48754 18.9244C4.04567 18.8903 4.61942 18.6041 5.10317 18.1191L14.0275 8.62035C14.351 8.29628 15.001 7.50191 14.3394 6.83878C13.9647 6.46347 13.7016 6.4866 13.615 6.49378C13.3679 6.51566 13.0791 6.6866 12.7794 6.98722L6.06223 14.1313C5.82504 14.3835 5.4291 14.3957 5.17877 14.1578C4.92721 13.921 4.91565 13.5241 5.15221 13.2728L11.8816 6.11535C12.4107 5.58378 12.9516 5.29566 13.5022 5.24628C13.9319 5.20814 14.571 5.29972 15.2229 5.95347C16.1904 6.92283 16.0701 8.34472 14.9244 9.49285L6.00006 18.991C5.28756 19.7059 4.42723 20.1213 3.5641 20.1744C3.50067 20.1787 3.43723 20.1806 3.37379 20.1806L3.37381 20.1806Z" fill="#F1F1F1"/>
</g>
<defs>
<clipPath id="clip0_262_1471">
<rect width="20" height="20" fill="white" transform="translate(0 0.5)"/>
</clipPath>
</defs>
</svg>
