<svg width="21" height="20" viewBox="0 0 21 20" fill="none" xmlns="http://www.w3.org/2000/svg">
<g clip-path="url(#clip0_293_1221)">
<path d="M10.2723 0.489136C5.02014 0.489136 0.761475 4.7478 0.761475 10C0.761475 15.2522 5.02014 19.5109 10.2723 19.5109C15.5246 19.5109 19.7832 15.2522 19.7832 10C19.7832 4.7478 15.5246 0.489136 10.2723 0.489136ZM10.2723 17.8974C5.91178 17.8974 2.37493 14.3606 2.37493 10C2.37493 5.63944 5.91178 2.10259 10.2723 2.10259C14.6329 2.10259 18.1698 5.63944 18.1698 10C18.1698 14.3606 14.6329 17.8974 10.2723 17.8974Z" fill="#F1F1F1"/>
<path d="M9.25342 6.26359C9.25342 6.53385 9.36078 6.79304 9.55188 6.98415C9.74299 7.17525 10.0022 7.28261 10.2724 7.28261C10.5427 7.28261 10.8019 7.17525 10.993 6.98415C11.1841 6.79304 11.2915 6.53385 11.2915 6.26359C11.2915 5.99333 11.1841 5.73414 10.993 5.54303C10.8019 5.35193 10.5427 5.24457 10.2724 5.24457C10.0022 5.24457 9.74299 5.35193 9.55188 5.54303C9.36078 5.73414 9.25342 5.99333 9.25342 6.26359ZM10.782 8.64131H9.76293C9.66952 8.64131 9.59309 8.71773 9.59309 8.81114V14.5856C9.59309 14.679 9.66952 14.7554 9.76293 14.7554H10.782C10.8754 14.7554 10.9518 14.679 10.9518 14.5856V8.81114C10.9518 8.71773 10.8754 8.64131 10.782 8.64131Z" fill="#F1F1F1"/>
</g>
<defs>
<clipPath id="clip0_293_1221">
<rect width="20" height="20" fill="white" transform="translate(0.272461)"/>
</clipPath>
</defs>
</svg>
