<svg width="19" height="18" viewBox="0 0 19 18" fill="none" xmlns="http://www.w3.org/2000/svg">
<g clip-path="url(#clip0_262_1198)">
<path d="M18.4932 2.51357L17.2847 3.45857C15.6368 1.35214 13.074 0 10.1961 0C5.22682 0 1.20468 4.01786 1.19825 8.98929C1.19182 13.965 5.22254 18 10.1961 18C14.0811 18 17.3918 15.5357 18.6518 12.0836C18.684 11.9936 18.6368 11.8929 18.5468 11.8629L17.3318 11.445C17.2895 11.4305 17.2431 11.4331 17.2027 11.4523C17.1622 11.4716 17.1309 11.5058 17.1154 11.5479C17.0768 11.655 17.034 11.7621 16.989 11.8671C16.6183 12.7457 16.0868 13.5343 15.4097 14.2114C14.738 14.8844 13.9427 15.4213 13.0675 15.7929C12.1611 16.1764 11.1947 16.3714 10.2004 16.3714C9.20396 16.3714 8.23968 16.1764 7.33325 15.7929C6.4572 15.4229 5.66165 14.8857 4.99111 14.2114C4.31761 13.5398 3.78121 12.7436 3.41182 11.8671C3.02825 10.9586 2.83325 9.99429 2.83325 8.99786C2.83325 8.00143 3.02825 7.03714 3.41182 6.12857C3.78254 5.25 4.31396 4.46143 4.99111 3.78429C5.66825 3.10714 6.45682 2.57571 7.33325 2.20286C8.23968 1.81929 9.20611 1.62429 10.2004 1.62429C11.1968 1.62429 12.1611 1.81929 13.0675 2.20286C13.9436 2.57281 14.7391 3.10997 15.4097 3.78429C15.6218 3.99643 15.8211 4.22143 16.0054 4.45714L14.7154 5.46429C14.6899 5.48403 14.6704 5.51058 14.6593 5.54088C14.6482 5.57117 14.6459 5.60399 14.6526 5.63555C14.6593 5.66712 14.6748 5.69614 14.6973 5.7193C14.7198 5.74245 14.7483 5.75879 14.7797 5.76643L18.5425 6.68786C18.6497 6.71357 18.7547 6.63214 18.7547 6.52286L18.7718 2.64643C18.7697 2.505 18.6047 2.42571 18.4932 2.51357V2.51357Z" fill="#F1F1F1"/>
</g>
<defs>
<clipPath id="clip0_262_1198">
<rect width="18" height="18" fill="white" transform="translate(0.769287)"/>
</clipPath>
</defs>
</svg>
