<svg width="16" height="18" viewBox="0 0 16 18" fill="none" xmlns="http://www.w3.org/2000/svg">
<path d="M2.15391 18.0002C1.9168 18.0003 1.68389 17.9376 1.47891 17.8184C1.26344 17.7002 1.08381 17.5261 0.958938 17.3144C0.834061 17.1027 0.768549 16.8613 0.769293 16.6155V1.38478C0.768549 1.13901 0.834061 0.897579 0.958938 0.685898C1.08381 0.474217 1.26344 0.300108 1.47891 0.181891C1.69124 0.0581744 1.93348 -0.00483371 2.17918 -0.000255414C2.42488 0.00432288 2.6646 0.0763115 2.87218 0.207852L15.3337 7.81458C15.538 7.9378 15.7069 8.1117 15.8242 8.31942C15.9415 8.52713 16.0031 8.76162 16.0031 9.00016C16.0031 9.2387 15.9415 9.47319 15.8242 9.68091C15.7069 9.88862 15.538 10.0625 15.3337 10.1857L2.87218 17.7925C2.65748 17.9288 2.40825 18.0009 2.15391 18.0002ZM2.15391 1.38478V16.6155L14.6154 9.00016L2.15391 1.38478Z" fill="#F1F1F1"/>
</svg>
