<svg width="19" height="18" viewBox="0 0 19 18" fill="none" xmlns="http://www.w3.org/2000/svg">
<path d="M0.769287 2.57143C0.769287 1.88944 1.0402 1.23539 1.52244 0.753154C2.00468 0.270917 2.65873 0 3.34072 0H14.1137C14.7956 0.000145639 15.4496 0.271159 15.9317 0.753429L18.0159 2.83757C18.4981 3.3197 18.7691 3.97364 18.7693 4.65557V15.4286C18.7693 16.1106 18.4984 16.7646 18.0161 17.2468C17.5339 17.7291 16.8798 18 16.1979 18H3.34072C2.65873 18 2.00468 17.7291 1.52244 17.2468C1.0402 16.7646 0.769287 16.1106 0.769287 15.4286V2.57143ZM3.34072 1.28571C2.99972 1.28571 2.6727 1.42117 2.43158 1.66229C2.19046 1.90341 2.055 2.23044 2.055 2.57143V15.4286C2.055 15.7696 2.19046 16.0966 2.43158 16.3377C2.6727 16.5788 2.99972 16.7143 3.34072 16.7143V10.9286C3.34072 10.4171 3.5439 9.92654 3.90558 9.56487C4.26726 9.20319 4.7578 9 5.26929 9H14.2693C14.7808 9 15.2713 9.20319 15.633 9.56487C15.9947 9.92654 16.1979 10.4171 16.1979 10.9286V16.7143C16.5389 16.7143 16.8659 16.5788 17.107 16.3377C17.3481 16.0966 17.4836 15.7696 17.4836 15.4286V4.65557C17.4835 4.31461 17.348 3.98763 17.1069 3.74657L15.0227 1.66243C14.7817 1.42129 14.4547 1.28579 14.1137 1.28571H13.6264V4.5C13.6264 5.01149 13.4232 5.50203 13.0616 5.86371C12.6999 6.22538 12.2093 6.42857 11.6979 6.42857H6.555C6.04351 6.42857 5.55297 6.22538 5.1913 5.86371C4.82962 5.50203 4.62643 5.01149 4.62643 4.5V1.28571H3.34072ZM5.91214 1.28571V4.5C5.91214 4.6705 5.97987 4.83401 6.10043 4.95457C6.22099 5.07513 6.3845 5.14286 6.555 5.14286H11.6979C11.8684 5.14286 12.0319 5.07513 12.1524 4.95457C12.273 4.83401 12.3407 4.6705 12.3407 4.5V1.28571H5.91214ZM14.9121 16.7143V10.9286C14.9121 10.7581 14.8444 10.5946 14.7239 10.474C14.6033 10.3534 14.4398 10.2857 14.2693 10.2857H5.26929C5.09879 10.2857 4.93528 10.3534 4.81472 10.474C4.69416 10.5946 4.62643 10.7581 4.62643 10.9286V16.7143H14.9121Z" fill="#F1F1F1"/>
</svg>
