<!-- Generator: Adobe Illustrator 25.0.1, SVG Export Plug-In . SVG Version: 6.00 Build 0)  -->
<svg
	version="1.1"
	id="Réteg_3"
	xmlns="http://www.w3.org/2000/svg"
	xmlns:xlink="http://www.w3.org/1999/xlink"
	x="0px"
	y="0px"
	viewBox="0 0 24 23"
	style="enable-background:new 0 0 24 23;"
	xml:space="preserve"
>
	<g>
		<path
			d="M9.4,6.1C9.2,5.9,8.9,5.7,8.6,5.7H2c-1.1,0-2,0.9-2,2V21c0,1.1,0.9,2,2,2h13.3c1.1,0,2-0.9,2-2v-3.5c0-0.2-0.1-0.4-0.2-0.5
		L9.4,6.1z M15.5,21c0,0.1-0.1,0.2-0.2,0.2H2c-0.1,0-0.2-0.1-0.2-0.2V7.7c0-0.1,0.1-0.2,0.2-0.2h6.2l7.3,10.3V21z"
		/>
		<path
			d="M23.6,3.3l-4.5-3.2C18.9,0,18.6,0,18.4,0c-0.2,0-0.4,0.2-0.6,0.4l-3.2,4.6c0,0,0,0,0,0s0,0,0,0l-2.1,3
		c-0.1,0.2-0.2,0.4-0.1,0.7c0,0.2,0.2,0.4,0.4,0.6l4.5,3.2c0.2,0.1,0.3,0.2,0.5,0.2c0.3,0,0.6-0.1,0.7-0.4l2.1-3c0,0,0,0,0,0
		c0,0,0,0,0,0l3.2-4.6C24.1,4.2,24,3.6,23.6,3.3z M17.6,10.4l-3.1-2.2l1.1-1.5l3.1,2.2L17.6,10.4z M19.7,7.4l-3.1-2.2l2.2-3.1
		l3.1,2.2L19.7,7.4z"
		/>
	</g>
</svg>
