<!-- Generator: Adobe Illustrator 25.0.1, SVG Export Plug-In . SVG Version: 6.00 Build 0)  -->
<svg
	version="1.1"
	id="Réteg_2"
	xmlns="http://www.w3.org/2000/svg"
	xmlns:xlink="http://www.w3.org/1999/xlink"
	x="0px"
	y="0px"
	viewBox="0 0 24 21.8"
	style="enable-background:new 0 0 24 21.8;"
	xml:space="preserve"
>
	<g>
		<path
			d="M16.8,15.5L1.4,5.8c-0.3-0.2-0.6-0.2-0.9,0C0.2,5.9,0,6.2,0,6.6v13.3c0,1.1,0.9,2,2,2h13.3c1.1,0,2-0.9,2-2v-3.5
		c0-0.1,0-0.2-0.1-0.3C17.2,15.8,17,15.6,16.8,15.5z M15.5,19.8c0,0.1-0.1,0.2-0.2,0.2H2c-0.1,0-0.2-0.1-0.2-0.2V8.2l13.7,8.6V19.8z
		"
		/>
		<path
			d="M23.6,3.3L19,0.2C18.8,0,18.6,0,18.4,0c-0.2,0-0.4,0.2-0.6,0.4l-5.3,7.6c-0.1,0.2-0.2,0.4-0.1,0.7s0.2,0.4,0.4,0.6l4.5,3.2
		c0.2,0.1,0.3,0.2,0.5,0.2c0.1,0,0.1,0,0.2,0c0.2,0,0.4-0.2,0.6-0.4l5.3-7.6C24.1,4.2,24,3.6,23.6,3.3z M17.6,10.4l-3.1-2.2l1.1-1.5
		l3.1,2.2L17.6,10.4z M19.7,7.4l-3.1-2.2l2.2-3.1l3.1,2.2L19.7,7.4z"
		/>
	</g>
</svg>
