<svg
   width="210mm"
   height="297mm"
   viewBox="0 0 210 297"
   version="1.1"
   id="svg234"
   xml:space="preserve"
   inkscape:export-filename="cloud.svg"
   inkscape:export-xdpi="96"
   inkscape:export-ydpi="96"
   xmlns:inkscape="http://www.inkscape.org/namespaces/inkscape"
   xmlns:sodipodi="http://sodipodi.sourceforge.net/DTD/sodipodi-0.dtd"
   xmlns="http://www.w3.org/2000/svg"
   xmlns:svg="http://www.w3.org/2000/svg">
     <g
     inkscape:label="Layer 1"
     inkscape:groupmode="layer"
     id="layer1"
     transform="translate(301.43347,-213.41492)">
     <g
       id="g242"
       transform="matrix(0.26458333,0,0,0.26458333,-301.43347,213.41492)">
		<path
   d="M 24,9.6 C 24,7.6 22.4,6 20.4,6 20.2,6 20,6 19.9,6.1 19.1,4.4 17.4,3.3 15.5,3.3 14.3,1.3 12.1,0 9.8,0 6.8,0 4.1,2.1 3.4,5 1.5,5.3 0,7 0,9 c 0,2.3 1.8,4.1 4.1,4.1 0,0 0,0 0,0 0,0 0,0 0,0 h 16.3 c 0,0 0.1,0 0.1,0 C 22.4,13 24,11.5 24,9.6 Z m -3.6,1.7 H 4.2 c 0,0 0,0 0,0 0,0 0,0 0,0 -1.3,0 -2.3,-1 -2.3,-2.3 0,-1.3 1,-2.3 2.3,-2.3 0,0 0,0 0,0 0.2,0 0.5,-0.1 0.6,-0.3 0,0 0,0 0,0 C 4.9,6.3 4.9,6.2 5,6.1 c 0,0 0,0 0,0 C 5,6.1 5,6 5,5.9 5.3,3.5 7.3,1.8 9.7,1.8 c 1.9,0 3.6,1.1 4.4,2.8 0,0 0,0 0,0 0,0 0.1,0.1 0.1,0.1 0,0.1 0.1,0.1 0.1,0.1 0,0 0.1,0 0.1,0.1 0.1,0 0.1,0.1 0.2,0.1 0,0 0.1,0 0.1,0 0.1,0 0.1,0 0.2,0 0,0 0,0 0,0 0.1,0 0.3,0 0.4,0 1.4,0 2.6,0.9 3,2.3 0,0 0,0 0,0.1 0,0 0,0 0,0.1 0,0 0,0 0,0.1 0,0.1 0.1,0.1 0.1,0.2 0,0 0,0.1 0.1,0.1 0.1,0.1 0.1,0.1 0.2,0.1 0,0 0,0 0.1,0 0.1,0 0.2,0.1 0.3,0.1 0,0 0,0 0,0 0,0 0,0 0,0 0.1,0 0.1,0 0.2,0 0,0 0,0 0.1,0 0,0 0,0 0.1,0 0.2,-0.1 0.5,-0.2 0.7,-0.2 1,0 1.8,0.8 1.8,1.8 0,1 -0.6,1.6 -1.6,1.6 z"
   id="path238" />
		
	</g></g></svg>
