<svg
	version="1.1"
	id="Réteg_3"
	xmlns="http://www.w3.org/2000/svg"
	xmlns:xlink="http://www.w3.org/1999/xlink"
	x="0px"
	y="0px"
	viewBox="0 0 24 24"
	style="enable-background:new 0 0 24 24;"
	xml:space="preserve"
>

	<path
		class="st0"
		d="M21.1,0H8.4C6.8,0,5.5,1.3,5.5,2.9v2.6H2.9C1.3,5.5,0,6.8,0,8.4v12.7C0,22.7,1.3,24,2.9,24h12.7
	c1.6,0,2.9-1.3,2.9-2.9v-2.6h2.6c1.6,0,2.9-1.3,2.9-2.9V2.9C24,1.3,22.7,0,21.1,0z M16.7,21.1c0,0.6-0.5,1.1-1.1,1.1H2.9
	c-0.6,0-1.1-0.5-1.1-1.1V8.4c0-0.6,0.5-1.1,1.1-1.1h12.7c0.6,0,1.1,0.5,1.1,1.1V21.1z M22.2,15.6c0,0.6-0.5,1.1-1.1,1.1h-2.6V8.4
	c0-1.6-1.3-2.9-2.9-2.9H7.3V2.9c0-0.6,0.5-1.1,1.1-1.1h12.7c0.6,0,1.1,0.5,1.1,1.1V15.6z"
	/>
</svg>
