<svg
	version="1.1"
	id="Réteg_3"
	xmlns="http://www.w3.org/2000/svg"
	xmlns:xlink="http://www.w3.org/1999/xlink"
	x="0px"
	y="0px"
	viewBox="0 0 24 20.6"
	style="enable-background:new 0 0 24 20.6;"
	xml:space="preserve"
>
	<g>
		<path
			d="M0.9,7.8c0.5,0,0.9-0.4,0.9-0.9c0-0.4,0.3-0.7,0.7-0.7c0.5,0,0.9-0.4,0.9-0.9S3,4.4,2.5,4.4C1.1,4.4,0,5.5,0,6.9
		C0,7.4,0.4,7.8,0.9,7.8z"
		/>
		<path
			d="M0.9,14.5c0.5,0,0.9-0.4,0.9-0.9v-2.2c0-0.5-0.4-0.9-0.9-0.9S0,10.9,0,11.4v2.2C0,14.1,0.4,14.5,0.9,14.5z"
		/>
		<path
			d="M2.5,18.8c-0.4,0-0.7-0.3-0.7-0.7c0-0.5-0.4-0.9-0.9-0.9S0,17.6,0,18.1c0,1.4,1.1,2.5,2.5,2.5c0.5,0,0.9-0.4,0.9-0.9
		S3,18.8,2.5,18.8z"
		/>
		<path
			d="M9.2,18.8H7c-0.5,0-0.9,0.4-0.9,0.9s0.4,0.9,0.9,0.9h2.2c0.5,0,0.9-0.4,0.9-0.9S9.7,18.8,9.2,18.8z"
		/>
		<path
			d="M15.3,17.2c-0.5,0-0.9,0.4-0.9,0.9c0,0.4-0.3,0.7-0.7,0.7c-0.5,0-0.9,0.4-0.9,0.9s0.4,0.9,0.9,0.9c1.4,0,2.5-1.1,2.5-2.5
		C16.2,17.6,15.8,17.2,15.3,17.2z"
		/>
		<path
			d="M15.3,10.5c-0.5,0-0.9,0.4-0.9,0.9v2.2c0,0.5,0.4,0.9,0.9,0.9s0.9-0.4,0.9-0.9v-2.2C16.2,10.9,15.8,10.5,15.3,10.5z"
		/>
		<path
			d="M7,6.2h2.2c0.5,0,0.9-0.4,0.9-0.9S9.7,4.4,9.2,4.4H7c-0.5,0-0.9,0.4-0.9,0.9S6.5,6.2,7,6.2z"
		/>
		<path
			d="M21.5,5.4c-0.6,0-1.1,0.2-1.6,0.6L19,5.3l1.1-0.7C20.5,4.9,21,5,21.5,5C22.9,5,24,3.9,24,2.6c0-1.3-1.1-2.4-2.4-2.4
		s-2.4,1.1-2.4,2.4c0,0.2,0,0.5,0.1,0.7l-1.5,1.1l-6.2-4.3c-0.3-0.2-0.6-0.1-0.8,0.1c-0.2,0.3-0.1,0.6,0.1,0.8l5.6,4.2l-0.6,0.4
		c-0.4-0.8-1.3-1.4-2.2-1.4c-0.5,0-0.9,0.4-0.9,0.9s0.4,0.9,0.9,0.9c0.4,0,0.7,0.3,0.7,0.7c0,0.5,0.4,0.9,0.9,0.9
		c0.3,0,0.5-0.1,0.7-0.4l1.7-1.2l1.4,1.1c0,0.2-0.1,0.4-0.1,0.5c0,1.3,1.1,2.4,2.4,2.4S24,9.2,24,7.8C24,6.5,22.9,5.4,21.5,5.4z
		 M21.5,1.3c0.7,0,1.2,0.6,1.2,1.2c0,0.7-0.6,1.2-1.2,1.2s-1.2-0.6-1.2-1.2C20.3,1.9,20.9,1.3,21.5,1.3z M21.5,9.1
		c-0.7,0-1.2-0.6-1.2-1.2c0-0.7,0.6-1.2,1.2-1.2s1.2,0.6,1.2,1.2C22.8,8.5,22.2,9.1,21.5,9.1z"
		/>
	</g>
</svg>
