<svg
	version="1.1"
	id="Réteg_3"
	xmlns="http://www.w3.org/2000/svg"
	xmlns:xlink="http://www.w3.org/1999/xlink"
	x="0px"
	y="0px"
	viewBox="0 0 24 24"
	style="enable-background:new 0 0 24 24;"
	xml:space="preserve"
>
	<g>
		<path
			d="M12,0C5.4,0,0,5.4,0,12c0,6.6,5.4,12,12,12c6.6,0,12-5.4,12-12C24,5.4,18.6,0,12,0z M12,22.2C6.4,22.2,1.8,17.6,1.8,12
		C1.8,6.4,6.4,1.8,12,1.8c5.6,0,10.2,4.6,10.2,10.2C22.2,17.6,17.6,22.2,12,22.2z"
		/>
		<path
			d="M13.6,12l3.6-3.6c0.5-0.5,0.5-1.2,0-1.6c-0.4-0.4-1.2-0.4-1.6,0L12,10.4L8.4,6.8c-0.5-0.5-1.2-0.5-1.6,0
		c-0.5,0.5-0.5,1.2,0,1.6l3.6,3.6l-3.6,3.6c-0.2,0.2-0.3,0.5-0.3,0.8c0,0.3,0.1,0.6,0.3,0.8c0.2,0.2,0.5,0.3,0.8,0.3
		c0.3,0,0.6-0.1,0.8-0.3l3.6-3.6l3.6,3.6c0.5,0.5,1.2,0.5,1.6,0c0.5-0.5,0.5-1.2,0-1.6L13.6,12z"
		/>
	</g>
</svg>
