<!-- Generator: Adobe Illustrator 25.0.1, SVG Export Plug-In . SVG Version: 6.00 Build 0)  -->
<svg
	version="1.1"
	id="Réteg_2"
	xmlns="http://www.w3.org/2000/svg"
	xmlns:xlink="http://www.w3.org/1999/xlink"
	x="0px"
	y="0px"
	viewBox="0 0 23.6 22.9"
	style="enable-background:new 0 0 23.6 22.9;"
	xml:space="preserve"
>
	<g>
		<path
			d="M11.2,18.2c0.2,0.2,0.4,0.3,0.6,0.3s0.5-0.1,0.6-0.3l5.7-5.7c0.4-0.4,0.4-0.9,0-1.3s-0.9-0.4-1.3,0l-4.2,4.2V0.9
		c0-0.5-0.4-0.9-0.9-0.9s-0.9,0.4-0.9,0.9v14.5l-4.2-4.2c-0.4-0.4-0.9-0.4-1.3,0c-0.4,0.4-0.4,0.9,0,1.3L11.2,18.2z"
		/>
		<path
			d="M22.7,15.9c-0.5,0-0.9,0.4-0.9,0.9v2.8c0,0.8-0.7,1.5-1.5,1.5h-17c-0.8,0-1.5-0.7-1.5-1.5v-2.8c0-0.5-0.4-0.9-0.9-0.9
		S0,16.3,0,16.8v2.8c0,1.8,1.5,3.3,3.3,3.3h17c1.8,0,3.3-1.5,3.3-3.3v-2.8C23.6,16.3,23.2,15.9,22.7,15.9z"
		/>
	</g>
</svg>
