<svg
	version="1.1"
	id="Réteg_3"
	xmlns="http://www.w3.org/2000/svg"
	xmlns:xlink="http://www.w3.org/1999/xlink"
	x="0px"
	y="0px"
	viewBox="0 0 24 24"
	style="enable-background:new 0 0 24 24;"
	xml:space="preserve"
>
	<path
		d="M24,4.3c0-0.5-0.2-0.9-0.5-1.3l-2.6-2.6c-0.7-0.7-1.8-0.7-2.5,0l-2,2c0,0,0,0,0,0s0,0,0,0L1.8,17.1
	c-0.2,0.2-0.4,0.4-0.4,0.7l-1.2,3.8c-0.2,0.6,0,1.3,0.4,1.8C0.9,23.8,1.3,24,1.8,24c0.2,0,0.4,0,0.5-0.1l3.8-1.2
	c0.3-0.1,0.5-0.2,0.7-0.4c0,0,0,0,0,0L21.5,7.6c0,0,0,0,0,0s0,0,0,0l2-2C23.8,5.3,24,4.8,24,4.3z M5.6,21l-3.8,1.3L3,18.4l14-14
	L19.6,7L5.6,21z M20.8,5.7l-2.6-2.6l1.4-1.4l2.6,2.6L20.8,5.7z"
	/>
</svg>
