<svg
	version="1.1"
	id="Réteg_3"
	xmlns="http://www.w3.org/2000/svg"
	xmlns:xlink="http://www.w3.org/1999/xlink"
	x="0px"
	y="0px"
	viewBox="0 0 24 24"
	style="enable-background:new 0 0 24 24;"
	xml:space="preserve"
>
	<g>
		<path
			d="M21.2,9c-0.5,0-0.9,0.4-0.9,0.9v11.4c0,0.4-0.4,0.8-0.8,0.8H2.6c-0.4,0-0.8-0.4-0.8-0.8V4.4c0-0.4,0.4-0.8,0.8-0.8h11.8
		c0.5,0,0.9-0.4,0.9-0.9s-0.4-0.9-0.9-0.9H2.6C1.2,1.8,0,3,0,4.4v16.9C0,22.8,1.2,24,2.6,24h16.9c1.4,0,2.6-1.2,2.6-2.6V9.9
		C22.1,9.4,21.7,9,21.2,9z"
		/>
		<path
			d="M23.1,0h-6.6c-0.5,0-0.9,0.4-0.9,0.9s0.4,0.9,0.9,0.9h4.5L10.4,12.3c-0.4,0.4-0.4,0.9,0,1.3c0.2,0.2,0.4,0.3,0.6,0.3
		s0.5-0.1,0.6-0.3L22.2,3.1v4.5c0,0.5,0.4,0.9,0.9,0.9S24,8,24,7.5V0.9C24,0.4,23.6,0,23.1,0z"
		/>
	</g>
</svg>
