<svg
	version="1.1"
	id="Réteg_3"
	xmlns="http://www.w3.org/2000/svg"
	xmlns:xlink="http://www.w3.org/1999/xlink"
	x="0px"
	y="0px"
	viewBox="0 0 23.9 24.4"
	style="enable-background:new 0 0 23.9 24.4;"
	xml:space="preserve"
>
	<path
		d="M21,9.4h-4.2V2.1c0-1.2-0.9-2.1-2.1-2.1H2.1C0.9,0,0,0.9,0,2.1v1.1v15v0.6c0,0.7,0.3,1.3,0.9,1.7L6,24
	c0.4,0.2,0.8,0.4,1.2,0.4c0.3,0,0.7-0.1,1-0.2c0.7-0.4,1.1-1.1,1.1-1.9v-1.9h0.7v0.1c0,1.6,1.3,2.9,2.9,2.9H21
	c1.6,0,2.9-1.3,2.9-2.9v-8.1C23.9,10.7,22.6,9.4,21,9.4z M7.5,22.2c0,0.2-0.1,0.2-0.2,0.3s-0.2,0.1-0.3,0c0,0,0,0,0,0l-5-3.5
	c-0.1-0.1-0.1-0.2-0.1-0.3v-0.6v-15C1.8,3,1.9,3,2,2.9c0,0,0.1,0,0.1,0c0.1,0,0.1,0,0.2,0.1l5,3.5c0.1,0.1,0.1,0.2,0.1,0.3V22.2z
	 M9.3,18.5V6.7c0-0.7-0.3-1.3-0.9-1.7L3.8,1.8h10.8c0.2,0,0.3,0.1,0.3,0.3v7.3h-2.1c-1.6,0-2.9,1.3-2.9,2.9v6.3H9.3z M22.1,20.4
	c0,0.6-0.5,1.1-1.1,1.1h-8.1c-0.6,0-1.1-0.5-1.1-1.1v-8.1c0-0.6,0.5-1.1,1.1-1.1H21c0.6,0,1.1,0.5,1.1,1.1V20.4z"
	/>
</svg>
