<svg
	version="1.1"
	id="Réteg_2"
	xmlns="http://www.w3.org/2000/svg"
	xmlns:xlink="http://www.w3.org/1999/xlink"
	x="0px"
	y="0px"
	viewBox="0 0 21 26.9"
	style="enable-background:new 0 0 21 26.9;"
	xml:space="preserve"
>
	<path
		d="M18.1,0H2.9C1.3,0,0,1.3,0,2.9v15.2C0,19.7,1.3,21,2.9,21h6.7v2.8l-0.9-0.9c-0.4-0.4-0.9-0.4-1.3,0s-0.4,0.9,0,1.3l2.5,2.5
	c0.2,0.2,0.4,0.3,0.6,0.3s0.5-0.1,0.6-0.3l2.5-2.5c0.4-0.4,0.4-0.9,0-1.3s-0.9-0.4-1.3,0l-0.9,0.9V21h6.7c1.6,0,2.9-1.3,2.9-2.9V2.9
	C21,1.3,19.7,0,18.1,0z M19.2,18.1c0,0.6-0.5,1.1-1.1,1.1h-6.7v-4.6c0-0.5-0.4-0.9-0.9-0.9s-0.9,0.4-0.9,0.9v4.6H2.9
	c-0.6,0-1.1-0.5-1.1-1.1V2.9c0-0.6,0.5-1.1,1.1-1.1h15.2c0.6,0,1.1,0.5,1.1,1.1V18.1z"
	/>
</svg>
