<!-- Generator: Adobe Illustrator 25.0.1, SVG Export Plug-In . SVG Version: 6.00 Build 0)  -->
<svg
	version="1.1"
	id="Réteg_3"
	xmlns="http://www.w3.org/2000/svg"
	xmlns:xlink="http://www.w3.org/1999/xlink"
	x="0px"
	y="0px"
	viewBox="0 0 24 24"
	style="enable-background:new 0 0 24 24;"
	xml:space="preserve"
>
	<g>
		<path
			d="M7.4,22.2H2.3c-0.3,0-0.5-0.2-0.5-0.5V2.3C1.8,2,2,1.8,2.3,1.8h5.1c0.5,0,0.9-0.4,0.9-0.9S7.9,0,7.4,0H2.3C1,0,0,1,0,2.3
		v19.4C0,23,1,24,2.3,24h5.1c0.5,0,0.9-0.4,0.9-0.9S7.9,22.2,7.4,22.2z"
		/>
		<path
			d="M21.7,0h-5.4c-0.5,0-0.9,0.4-0.9,0.9s0.4,0.9,0.9,0.9h5.4c0.3,0,0.5,0.2,0.5,0.5v19.4c0,0.3-0.2,0.5-0.5,0.5h-5.4
		c-0.5,0-0.9,0.4-0.9,0.9s0.4,0.9,0.9,0.9h5.4c1.3,0,2.3-1,2.3-2.3V2.3C24,1,23,0,21.7,0z"
		/>
		<path
			d="M7.6,15.4c-0.8,0-1.3,0.6-1.3,1.4c0,0.8,0.5,1.4,1.3,1.4c0.8,0,1.3-0.6,1.3-1.4C8.9,16,8.4,15.4,7.6,15.4z"
		/>
		<path
			d="M12.1,15.4c-0.8,0-1.3,0.6-1.3,1.4c0,0.8,0.5,1.4,1.3,1.4c0.8,0,1.3-0.6,1.3-1.4C13.4,16,12.9,15.4,12.1,15.4z"
		/>
		<path
			d="M16.6,18.2c0.8,0,1.3-0.6,1.3-1.4c0-0.8-0.5-1.4-1.3-1.4c-0.8,0-1.3,0.6-1.3,1.4C15.3,17.6,15.8,18.2,16.6,18.2z"
		/>
	</g>
</svg>
