<svg id="Réteg_2_másolat" data-name="Réteg 2 másolat" xmlns="http://www.w3.org/2000/svg" viewBox="0 0 23.21 23.21"><defs></defs><path class="cls-1" d="M11.61,0a11.61,11.61,0,1,0,11.6,11.61A11.63,11.63,0,0,0,11.61,0Zm0,21.41a9.8,9.8,0,0,1-4.1-18.7V4.23A1.89,1.89,0,0,0,9.39,6.12h4.45a1.89,1.89,0,0,0,1.88-1.89V2.72a9.8,9.8,0,0,1-4.11,18.69Z"/><path class="cls-1" d="M6.61,11.61a1.81,1.81,0,1,0-1.81,1.8A1.81,1.81,0,0,0,6.61,11.61Z"/><path class="cls-1" d="M18.41,9.8a1.81,1.81,0,1,0,1.8,1.81A1.81,1.81,0,0,0,18.41,9.8Z"/><path class="cls-1" d="M6.8,14.61a1.81,1.81,0,1,0,1.8,1.8A1.81,1.81,0,0,0,6.8,14.61Z"/><path class="cls-1" d="M16.41,14.61a1.81,1.81,0,1,0,1.81,1.81A1.81,1.81,0,0,0,16.41,14.61Z"/><path class="cls-1" d="M11.61,16.6a1.81,1.81,0,1,0,1.8,1.81A1.81,1.81,0,0,0,11.61,16.6Z"/></svg>