<!-- Generator: Adobe Illustrator 25.0.1, SVG Export Plug-In . SVG Version: 6.00 Build 0)  -->
<svg
	version="1.1"
	id="Réteg_2_másolat"
	xmlns="http://www.w3.org/2000/svg"
	xmlns:xlink="http://www.w3.org/1999/xlink"
	x="0px"
	y="0px"
	viewBox="0 0 24 20.6"
	style="enable-background:new 0 0 24 20.6;"
	xml:space="preserve"
>
	<g>
		<path
			d="M24,9.6c0-2-1.6-3.6-3.6-3.6c-0.2,0-0.4,0-0.5,0.1c-0.8-1.7-2.5-2.8-4.4-2.8C14.3,1.3,12.1,0,9.8,0c-3,0-5.7,2.1-6.4,5
		C1.5,5.3,0,7,0,9c0,2.3,1.8,4.1,4.1,4.1c0,0,0,0,0,0c0,0,0,0,0,0h2.2c0.5,0,0.9-0.4,0.9-0.9s-0.4-0.9-0.9-0.9H4.2c0,0,0,0,0,0
		c0,0,0,0,0,0c-1.3,0-2.3-1-2.3-2.3c0-1.3,1-2.3,2.3-2.3c0,0,0,0,0,0c0.2,0,0.5-0.1,0.6-0.3c0,0,0,0,0,0c0.1-0.1,0.1-0.2,0.2-0.3
		c0,0,0,0,0,0C5,6.1,5,6,5,5.9c0.3-2.4,2.3-4.1,4.7-4.1c1.9,0,3.6,1.1,4.4,2.8c0,0,0,0,0,0c0,0,0.1,0.1,0.1,0.1
		c0,0.1,0.1,0.1,0.1,0.1c0,0,0.1,0,0.1,0.1c0.1,0,0.1,0.1,0.2,0.1c0,0,0.1,0,0.1,0c0.1,0,0.1,0,0.2,0c0,0,0,0,0,0c0.1,0,0.3,0,0.4,0
		c1.4,0,2.6,0.9,3,2.3c0,0,0,0,0,0.1c0,0,0,0,0,0.1c0,0,0,0,0,0.1c0,0.1,0.1,0.1,0.1,0.2c0,0,0,0.1,0.1,0.1c0.1,0.1,0.1,0.1,0.2,0.1
		c0,0,0,0,0.1,0c0.1,0,0.2,0.1,0.3,0.1c0,0,0,0,0,0c0,0,0,0,0,0c0.1,0,0.1,0,0.2,0c0,0,0,0,0.1,0c0,0,0,0,0.1,0
		c0.2-0.1,0.5-0.2,0.7-0.2c1,0,1.8,0.8,1.8,1.8s-0.8,1.8-1.8,1.8h-2.9c-0.5,0-0.9,0.4-0.9,0.9s0.4,0.9,0.9,0.9h2.9c0,0,0.1,0,0.1,0
		C22.4,13,24,11.5,24,9.6z"
		/>
		<path
			d="M12.6,10.4c-0.4-0.4-0.9-0.4-1.3,0l-3,3c-0.4,0.4-0.4,0.9,0,1.3c0.4,0.4,0.9,0.4,1.3,0l1.5-1.5v6.5c0,0.5,0.4,0.9,0.9,0.9
		s0.9-0.4,0.9-0.9v-6.5l1.5,1.5c0.2,0.2,0.4,0.3,0.6,0.3s0.5-0.1,0.6-0.3c0.4-0.4,0.4-0.9,0-1.3L12.6,10.4z"
		/>
	</g>
</svg>
