<svg
	version="1.1"
	id="Réteg_2"
	xmlns="http://www.w3.org/2000/svg"
	xmlns:xlink="http://www.w3.org/1999/xlink"
	x="0px"
	y="0px"
	viewBox="0 0 24 23"
	style="enable-background:new 0 0 24 23;"
	xml:space="preserve"
>
	<g>
		<path
			d="M24,9.6c0-2-1.6-3.6-3.6-3.6c-0.2,0-0.4,0-0.5,0.1c-0.8-1.7-2.5-2.8-4.4-2.8C14.3,1.3,12.1,0,9.8,0c-3,0-5.7,2.1-6.4,5
		C1.5,5.3,0,7,0,9c0,2.3,1.8,4.1,4.1,4.1c0,0,0,0,0,0c0,0,0,0,0,0h16.3c0,0,0.1,0,0.1,0C22.4,13,24,11.5,24,9.6z M20.4,11.3H4.2
		c0,0,0,0,0,0c0,0,0,0,0,0c-1.3,0-2.3-1-2.3-2.3c0-1.3,1-2.3,2.3-2.3c0,0,0,0,0,0c0.2,0,0.5-0.1,0.6-0.3c0,0,0,0,0,0
		c0.1-0.1,0.1-0.2,0.2-0.3c0,0,0,0,0,0C5,6.1,5,6,5,5.9c0.3-2.4,2.3-4.1,4.7-4.1c1.9,0,3.6,1.1,4.4,2.8c0,0,0,0,0,0
		c0,0,0.1,0.1,0.1,0.1c0,0.1,0.1,0.1,0.1,0.1c0,0,0.1,0,0.1,0.1c0.1,0,0.1,0.1,0.2,0.1c0,0,0.1,0,0.1,0c0.1,0,0.1,0,0.2,0
		c0,0,0,0,0,0c0.1,0,0.3,0,0.4,0c1.4,0,2.6,0.9,3,2.3c0,0,0,0,0,0.1c0,0,0,0,0,0.1c0,0,0,0,0,0.1c0,0.1,0.1,0.1,0.1,0.2
		c0,0,0,0.1,0.1,0.1c0.1,0.1,0.1,0.1,0.2,0.1c0,0,0,0,0.1,0c0.1,0,0.2,0.1,0.3,0.1c0,0,0,0,0,0c0,0,0,0,0,0c0.1,0,0.1,0,0.2,0
		c0,0,0,0,0.1,0c0,0,0,0,0.1,0c0.2-0.1,0.5-0.2,0.7-0.2c1,0,1.8,0.8,1.8,1.8S21.4,11.3,20.4,11.3z"
		/>
		<path
			d="M13,14.3c-0.2-0.2-0.4-0.3-0.6-0.3s-0.5,0.1-0.6,0.3l-3,3c-0.4,0.4-0.4,0.9,0,1.3s0.9,0.4,1.3,0l1.5-1.5v5
		c0,0.5,0.4,0.9,0.9,0.9s0.9-0.4,0.9-0.9v-5l1.5,1.5c0.2,0.2,0.4,0.3,0.6,0.3s0.5-0.1,0.6-0.3c0.4-0.4,0.4-0.9,0-1.3L13,14.3z"
		/>
	</g>
</svg>
