<?xml version="1.0" encoding="utf-8"?>
<!-- Generator: Adobe Illustrator 25.0.1, SVG Export Plug-In . SVG Version: 6.00 Build 0)  -->
<svg version="1.1" id="Réteg_3" xmlns="http://www.w3.org/2000/svg" xmlns:xlink="http://www.w3.org/1999/xlink" x="0px" y="0px"
	 viewBox="0 0 24 20.6" style="enable-background:new 0 0 24 20.6;" xml:space="preserve">
<path d="M15.7,13.5l-3-3c-0.3-0.3-0.9-0.3-1.3,0l-3,3c-0.4,0.4-0.4,0.9,0,1.3s0.9,0.4,1.3,0l1.5-1.5v6.5c0,0.5,0.4,0.9,0.9,0.9
	s0.9-0.4,0.9-0.9v-6.5l1.5,1.5c0.2,0.2,0.4,0.3,0.6,0.3s0.5-0.1,0.6-0.3C16,14.4,16,13.8,15.7,13.5z"/>
<path d="M20.4,13.1h-2.9c-0.5,0-0.9-0.4-0.9-0.9s0.4-0.9,0.9-0.9h2.9c1,0,1.7-0.8,1.7-1.8s-0.8-1.8-1.8-1.8c-0.3,0-0.5,0.1-0.7,0.2
	c-0.2,0.1-0.5,0.1-0.8,0c-0.2-0.1-0.4-0.3-0.5-0.6c-0.4-1.3-1.6-2.3-3-2.3c-0.1,0-0.3,0-0.4,0c-0.4,0.1-0.8-0.2-0.9-0.5
	c-0.8-1.7-2.5-2.8-4.4-2.8C7.4,1.8,5.4,3.6,5,5.9C5,6.4,4.6,6.7,4.2,6.7c-1.3,0-2.3,1-2.3,2.3c0,1.3,1,2.3,2.3,2.3h2.3
	c0.5,0,0.9,0.4,0.9,0.9s-0.4,0.9-0.9,0.9H4.2C1.9,13.1,0,11.3,0,9c0-2,1.5-3.7,3.4-4c0.7-2.9,3.3-5,6.4-5c2.4,0,4.6,1.3,5.7,3.3
	c1.9,0,3.6,1.1,4.4,2.7c0.2,0,0.4,0,0.6,0c2,0,3.6,1.6,3.6,3.6S22.4,13.1,20.4,13.1z"/>
</svg>
