<svg
	version="1.1"
	id="Réteg_3"
	xmlns="http://www.w3.org/2000/svg"
	xmlns:xlink="http://www.w3.org/1999/xlink"
	x="0px"
	y="0px"
	viewBox="0 0 23.8 22.8"
	style="enable-background:new 0 0 23.8 22.8;"
	xml:space="preserve"
>
	<path
		d="M23.8,11.3c0-0.8-0.4-1.5-1.1-1.8l0,0l0,0c0.7-0.4,1.1-1.1,1.1-1.8c0-0.8-0.4-1.5-1.1-1.8l-9.8-5.6c-0.6-0.4-1.4-0.4-2.1,0
	L1.1,5.8C0.4,6.2,0,6.9,0,7.7c0,0.8,0.4,1.5,1.1,1.8l0,0l0,0C0.4,9.9,0,10.6,0,11.3c0,0.8,0.4,1.5,1.1,1.8l0.1,0.1l-0.1,0.1
	C0.4,13.7,0,14.3,0,15.1c0,0.8,0.4,1.5,1.1,1.8l9.8,5.6c0.3,0.2,0.7,0.3,1,0.3s0.7-0.1,1-0.3l9.8-5.6c0.7-0.4,1.1-1.1,1.1-1.8
	c0-0.8-0.4-1.5-1.1-1.8l-0.1-0.1l0.1-0.1C23.4,12.8,23.8,12.1,23.8,11.3z M2,7.4l9.8-5.6c0,0,0.1,0,0.1,0s0.1,0,0.1,0l9.8,5.6
	C22,7.5,22,7.6,22,7.7c0,0.1,0,0.2-0.2,0.3l-9.8,5.6c-0.1,0.1-0.2,0.1-0.3,0L2,7.9C1.8,7.8,1.8,7.7,1.8,7.7C1.8,7.6,1.8,7.5,2,7.4z
	 M10.9,15c0.3,0.2,0.7,0.3,1,0.3s0.7-0.1,1-0.3l8-4.5l1,0.5c0.1,0.1,0.2,0.2,0.2,0.3c0,0.1,0,0.2-0.2,0.3l-9.8,5.6
	c-0.1,0.1-0.2,0.1-0.3,0L2,11.6c-0.1-0.1-0.2-0.2-0.2-0.3c0-0.1,0-0.2,0.2-0.3l1-0.5L10.9,15z M20.9,14.3l1,0.5
	C22,14.9,22,15,22,15.1c0,0.1,0,0.2-0.2,0.3l-9.8,5.6c-0.1,0.1-0.2,0.1-0.3,0L2,15.4c-0.1-0.1-0.2-0.2-0.2-0.3c0-0.1,0-0.2,0.2-0.3
	l1-0.5c0,0,0,0,0.1-0.1l7.9,4.5c0.3,0.2,0.7,0.3,1,0.3s0.7-0.1,1-0.3L20.9,14.3C20.9,14.3,20.9,14.3,20.9,14.3z"
	/>
</svg>
