<!-- Generator: Adobe Illustrator 25.0.1, SVG Export Plug-In . SVG Version: 6.00 Build 0)  -->
<svg
	version="1.1"
	id="Réteg_2"
	xmlns="http://www.w3.org/2000/svg"
	xmlns:xlink="http://www.w3.org/1999/xlink"
	x="0px"
	y="0px"
	viewBox="0 0 23.9 22.8"
	style="enable-background:new 0 0 23.9 22.8;"
	xml:space="preserve"
>
	<g>
		<path
			d="M21,0H2.9C1.3,0,0,1.3,0,2.9v17c0,1.6,1.3,2.9,2.9,2.9H21c1.6,0,2.9-1.3,2.9-2.9v-17C23.9,1.3,22.6,0,21,0z M22.1,19.9
		c0,0.6-0.5,1.1-1.1,1.1H2.9c-0.6,0-1.1-0.5-1.1-1.1v-17c0-0.6,0.5-1.1,1.1-1.1H21c0.6,0,1.1,0.5,1.1,1.1V19.9z"
		/>
		<path
			d="M19.9,11.3c0-0.1,0-0.1-0.1-0.2c0,0,0-0.1,0-0.1c0,0,0-0.1-0.1-0.1c0,0,0,0,0,0c-1.6-2.7-4.5-4.4-7.7-4.4
		c-3.2,0-6.1,1.7-7.7,4.4c0,0,0,0,0,0c0,0,0,0.1-0.1,0.1c0,0,0,0.1,0,0.1c0,0.1,0,0.1-0.1,0.2c0,0.1,0,0.1,0,0.2c0,0.1,0,0.1,0,0.2
		c0,0.1,0,0.1,0.1,0.2c0,0,0,0.1,0,0.1c0,0,0,0.1,0.1,0.1c0,0,0,0,0,0c1.6,2.7,4.5,4.4,7.7,4.4c3.2,0,6.1-1.7,7.7-4.4c0,0,0,0,0,0
		c0,0,0-0.1,0.1-0.1c0,0,0-0.1,0-0.1c0-0.1,0-0.1,0.1-0.2c0-0.1,0-0.1,0-0.2C19.9,11.4,19.9,11.4,19.9,11.3z M12,13.1
		c-0.9,0-1.7-0.7-1.7-1.6c0-0.9,0.7-1.7,1.7-1.7c0.9,0,1.7,0.7,1.7,1.7C13.7,12.4,12.9,13.1,12,13.1z M6.1,11.5c1-1.4,2.4-2.5,4-2.9
		c-1,0.6-1.6,1.7-1.6,2.9c0,1.2,0.6,2.3,1.6,2.9C8.5,13.9,7.1,12.9,6.1,11.5z M13.9,14.4c1-0.6,1.6-1.7,1.6-2.9
		c0-1.2-0.6-2.3-1.6-2.9c1.6,0.4,3.1,1.5,4,2.9C17,12.9,15.5,13.9,13.9,14.4z"
		/>
	</g>
</svg>
