<!-- Generator: Adobe Illustrator 25.0.1, SVG Export Plug-In . SVG Version: 6.00 Build 0)  -->
<svg
	version="1.1"
	id="Réteg_2"
	xmlns="http://www.w3.org/2000/svg"
	xmlns:xlink="http://www.w3.org/1999/xlink"
	x="0px"
	y="0px"
	viewBox="0 0 24 21"
	style="enable-background:new 0 0 24 21;"
	xml:space="preserve"
>
	<g>
		<path
			d="M23.7,9.1c-0.4-0.4-0.9-0.4-1.3,0L21,10.5C21,4.7,16.3,0,10.5,0C4.7,0,0,4.7,0,10.5C0,16.3,4.7,21,10.5,21
		c2.9,0,5.6-1.2,7.6-3.3c0.3-0.4,0.3-0.9,0-1.3c-0.4-0.3-0.9-0.3-1.3,0c-1.7,1.7-3.9,2.7-6.3,2.7c-4.8,0-8.7-3.9-8.7-8.7
		c0-4.8,3.9-8.7,8.7-8.7c4.8,0,8.7,3.9,8.7,8.7l-1.4-1.4c-0.4-0.4-0.9-0.4-1.3,0c-0.4,0.4-0.4,0.9,0,1.3l3.6,3.6l3.6-3.6
		C24.1,10,24.1,9.4,23.7,9.1z"
		/>
		<path
			d="M8.9,6C7.3,6,6,7.3,6,8.9v3.2c0,1.6,1.3,2.9,2.9,2.9h3.2c1.6,0,2.9-1.3,2.9-2.9V8.9C15,7.3,13.7,6,12.1,6H8.9z M13.2,8.9
		v3.2c0,0.6-0.5,1.1-1.1,1.1H8.9c-0.6,0-1.1-0.5-1.1-1.1V8.9c0-0.6,0.5-1.1,1.1-1.1h3.2C12.7,7.8,13.2,8.3,13.2,8.9z"
		/>
	</g>
</svg>
