<!-- Generator: Adobe Illustrator 25.0.1, SVG Export Plug-In . SVG Version: 6.00 Build 0)  -->
<svg
	version="1.1"
	id="Réteg_3"
	xmlns="http://www.w3.org/2000/svg"
	xmlns:xlink="http://www.w3.org/1999/xlink"
	x="0px"
	y="0px"
	viewBox="0 0 24 24"
	style="enable-background:new 0 0 24 24;"
	xml:space="preserve"
>

	<path
		d="M21.1,0h-9.3c-1.6,0-2.9,1.3-2.9,2.9v1.5H7.3c-1.6,0-2.9,1.3-2.9,2.9v1.5H2.9C1.3,8.9,0,10.2,0,11.8v9.3
	C0,22.7,1.3,24,2.9,24h9.3c1.6,0,2.9-1.3,2.9-2.9v-1.5h1.5c1.6,0,2.9-1.3,2.9-2.9v-1.5h1.5c1.6,0,2.9-1.3,2.9-2.9V2.9
	C24,1.3,22.7,0,21.1,0z M22.2,12.2c0,0.6-0.5,1.1-1.1,1.1h-1.5v-6c0-1.6-1.3-2.9-2.9-2.9h-6V2.9c0-0.6,0.5-1.1,1.1-1.1h9.3
	c0.6,0,1.1,0.5,1.1,1.1V12.2z"
	/>
</svg>
