<!-- Generator: Adobe Illustrator 25.0.1, SVG Export Plug-In . SVG Version: 6.00 Build 0)  -->
<svg
	version="1.1"
	id="Réteg_2"
	xmlns="http://www.w3.org/2000/svg"
	xmlns:xlink="http://www.w3.org/1999/xlink"
	x="0px"
	y="0px"
	viewBox="0 0 20 23.9"
	style="enable-background:new 0 0 20 23.9;"
	xml:space="preserve"
>
	<g>
		<path
			d="M17,10.3h-0.1V6.9C16.9,3.1,13.8,0,10,0C6.2,0,3.1,3.1,3.1,6.9v3.4H3c-1.6,0-3,1.3-3,3v7.6c0,1.6,1.3,3,3,3H17
		c1.6,0,3-1.3,3-3v-7.6C20,11.7,18.7,10.3,17,10.3z M4.9,6.9c0-2.8,2.3-5.1,5.1-5.1s5.1,2.3,5.1,5.1v3.4h-1.2h-0.1V7.2
		c0-2.1-1.7-3.8-3.8-3.8c-2.1,0-3.8,1.7-3.8,3.8v3.2H6.1H4.9V6.9z M12,10.3H8V7.2c0-1.1,0.9-2,2-2s2,0.9,2,2V10.3z M18.2,20.9
		c0,0.6-0.5,1.2-1.2,1.2H3c-0.6,0-1.2-0.5-1.2-1.2v-7.6c0-0.6,0.5-1.2,1.2-1.2h1h2.1h7.8H16h1c0.6,0,1.2,0.5,1.2,1.2V20.9z"
		/>
		<path
			d="M11.7,15.5c0-0.9-0.8-1.7-1.7-1.7s-1.7,0.8-1.7,1.7c0,0.7,0.4,1.3,1,1.6l-0.7,2.6c-0.1,0.4,0.3,0.8,0.8,0.8h1
		c0.5,0,0.9-0.4,0.8-0.8l-0.7-2.6C11.3,16.9,11.7,16.2,11.7,15.5z"
		/>
	</g>
</svg>
