<!-- Generator: Adobe Illustrator 25.0.1, SVG Export Plug-In . SVG Version: 6.00 Build 0)  -->
<svg version="1.1" id="Réteg_1" xmlns="http://www.w3.org/2000/svg" xmlns:xlink="http://www.w3.org/1999/xlink" x="0px" y="0px"
	 viewBox="0 0 14.7 24" style="enable-background:new 0 0 14.7 24;" xml:space="preserve">
<g>
	<path class="st0" d="M7.4,8.4C5,8.4,3.2,6.5,3.2,4.2S5,0,7.4,0c2.3,0,4.2,1.9,4.2,4.2S9.7,8.4,7.4,8.4z M7.4,1.8C6,1.8,5,2.9,5,4.2
		S6,6.6,7.4,6.6s2.4-1.1,2.4-2.4S8.7,1.8,7.4,1.8z"/>
	<path class="st0" d="M11.8,24H2.9C1.3,24,0,22.7,0,21.1l0-4.9c0-3.2,2-6.1,5-7c2.3-0.7,4.8-0.4,6.7,1c1.9,1.4,3,3.6,3,5.9l0,4.9
		C14.7,22.7,13.4,24,11.8,24z M7.3,10.7c-0.6,0-1.2,0.1-1.8,0.3c-2.2,0.7-3.7,2.9-3.7,5.3l0,4.9c0,0.6,0.5,1.1,1.1,1.1h8.9
		c0.6,0,1.1-0.5,1.1-1.1l0-4.9c0-1.8-0.9-3.4-2.3-4.5C9.7,11,8.5,10.7,7.3,10.7z"/>
</g>
</svg>
