<!-- Generator: Adobe Illustrator 25.0.1, SVG Export Plug-In . SVG Version: 6.00 Build 0)  -->
<svg
	version="1.1"
	id="Réteg_3"
	xmlns="http://www.w3.org/2000/svg"
	xmlns:xlink="http://www.w3.org/1999/xlink"
	x="0px"
	y="0px"
	viewBox="0 0 29.1 22.9"
	style="enable-background:new 0 0 29.1 22.9;"
	xml:space="preserve"
>
	<g>
		<path
			d="M14.5,8.1c2.2,0,4-1.8,4-4s-1.8-4-4-4s-4,1.8-4,4S12.3,8.1,14.5,8.1z M14.5,1.8c1.2,0,2.2,1,2.2,2.2s-1,2.2-2.2,2.2
		s-2.2-1-2.2-2.2S13.3,1.8,14.5,1.8z"
		/>
		<path
			d="M23.1,10.5c1.9,0,3.5-1.5,3.5-3.5c0-1.9-1.5-3.5-3.5-3.5S19.7,5.1,19.7,7C19.7,8.9,21.2,10.5,23.1,10.5z M23.1,5.4
		c0.9,0,1.7,0.7,1.7,1.7c0,0.9-0.7,1.7-1.7,1.7S21.5,7.9,21.5,7C21.5,6.1,22.2,5.4,23.1,5.4z"
		/>
		<path
			d="M26.6,11.9c-1.5-1.1-3.5-1.4-5.4-0.8c-0.3,0.1-0.6,0.2-0.9,0.4c-0.4-0.6-1-1.2-1.6-1.7c-1.8-1.3-4.2-1.7-6.4-1
		c-1.4,0.5-2.7,1.4-3.5,2.7c-0.3-0.2-0.6-0.3-0.9-0.4c-1.9-0.6-3.9-0.3-5.4,0.8C0.9,13,0,14.8,0,16.7l0,3.8c0,0.7,0.3,1.3,0.7,1.7
		c0.5,0.5,1.1,0.7,1.7,0.7h7.9h0.6h7.8h0.1h7.8c1.4,0,2.5-1.1,2.5-2.5v-3.8C29.1,14.8,28.2,13,26.6,11.9z M2,20.9
		c-0.1-0.1-0.2-0.3-0.2-0.5l0-3.8c0-1.3,0.6-2.6,1.7-3.3c1.1-0.8,2.5-1,3.8-0.6c0.2,0.1,0.4,0.2,0.7,0.3c-0.3,0.8-0.4,1.6-0.4,2.4
		l0,4.6c0,0.4,0.1,0.7,0.2,1H2.5C2.3,21.1,2.1,21.1,2,20.9z M18.6,21.1h-7.8h-0.6c-0.6,0-1-0.4-1-1l0-4.6c0-2.3,1.4-4.3,3.5-5
		c0.6-0.2,1.2-0.3,1.7-0.3c1.1,0,2.2,0.3,3.1,1c1.3,1,2.2,2.6,2.2,4.2v0l0,4.6c0,0.6-0.4,1-1,1H18.6z M27.3,20.5
		c0,0.4-0.3,0.7-0.7,0.7h-5.2c0.1-0.3,0.2-0.6,0.2-1l0-4.6c0-0.8-0.2-1.7-0.4-2.4c0.2-0.1,0.4-0.2,0.6-0.3c1.3-0.4,2.7-0.2,3.8,0.6
		c1.1,0.8,1.7,2,1.7,3.3V20.5z"
		/>
		<path
			d="M5.9,10.5c1.9,0,3.5-1.5,3.5-3.5c0-1.9-1.5-3.5-3.5-3.5C4,3.6,2.5,5.1,2.5,7C2.5,8.9,4,10.5,5.9,10.5z M5.9,5.4
		c0.9,0,1.7,0.7,1.7,1.7c0,0.9-0.7,1.7-1.7,1.7C5,8.7,4.3,7.9,4.3,7C4.3,6.1,5,5.4,5.9,5.4z"
		/>
	</g>
</svg>
