<!-- Generator: Adobe Illustrator 25.0.1, SVG Export Plug-In . SVG Version: 6.00 Build 0)  -->
<svg
	version="1.1"
	id="Réteg_2"
	xmlns="http://www.w3.org/2000/svg"
	xmlns:xlink="http://www.w3.org/1999/xlink"
	x="0px"
	y="0px"
	viewBox="0 0 17.4 24"
	style="enable-background:new 0 0 17.4 24;"
	xml:space="preserve"
>

	<g>
		<path
			class="st0"
			d="M0.9,4.2h15.6c0.5,0,0.9-0.4,0.9-0.9S17,2.4,16.5,2.4h-4.1V0.9C12.4,0.4,12,0,11.5,0H5.9C5.4,0,5,0.4,5,0.9
		v1.5H0.9C0.4,2.4,0,2.8,0,3.3S0.4,4.2,0.9,4.2z M6.8,1.8h3.8v0.6H6.8V1.8z"
		/>
		<path
			class="st0"
			d="M5.9,8.9C5.4,8.9,5,9.3,5,9.8v8.9c0,0.5,0.4,0.9,0.9,0.9s0.9-0.4,0.9-0.9V9.8C6.8,9.3,6.4,8.9,5.9,8.9z"
		/>
		<path
			class="st0"
			d="M11.5,8.9c-0.5,0-0.9,0.4-0.9,0.9v8.9c0,0.5,0.4,0.9,0.9,0.9s0.9-0.4,0.9-0.9V9.8C12.4,9.3,12,8.9,11.5,8.9z"
		/>
		<path
			class="st0"
			d="M16.5,5.4H0.9C0.4,5.4,0,5.8,0,6.3c0,0.1,0,0.1,0,0.2c0,0.1,0,0.1,0,0.2v15.5c0,1,0.9,1.9,2,1.9h13.4
		c1.1,0,2-0.8,2-1.9V6.6c0-0.1,0-0.1,0-0.2c0-0.1,0-0.1,0-0.2C17.4,5.8,17,5.4,16.5,5.4z M15.4,22.2H2c-0.1,0-0.2-0.1-0.2-0.1v-15
		h13.8l0,14.9C15.6,22.1,15.5,22.2,15.4,22.2z"
		/>
	</g>
</svg>
