<svg
	version="1.1"
	id="Réteg_3"
	xmlns="http://www.w3.org/2000/svg"
	xmlns:xlink="http://www.w3.org/1999/xlink"
	x="0px"
	y="0px"
	viewBox="0 0 23.9 24.2"
	style="enable-background:new 0 0 23.9 24.2;"
	xml:space="preserve"
>
	<g>
		<path
			d="M8.6,12.3H2.9c-1.6,0-2.9,1.3-2.9,2.9v5.7c0,1.6,1.3,2.9,2.9,2.9h5.7c1.6,0,2.9-1.3,2.9-2.9v-5.7
		C11.5,13.6,10.2,12.3,8.6,12.3z M9.7,20.9c0,0.6-0.5,1.1-1.1,1.1H2.9c-0.6,0-1.1-0.5-1.1-1.1v-5.7c0-0.6,0.5-1.1,1.1-1.1h5.7
		c0.6,0,1.1,0.5,1.1,1.1V20.9z"
		/>
		<path
			d="M2.2,9.3c0.5,0,0.9-0.4,0.9-0.9c0-2,1.6-3.7,3.7-3.7h0.6L6,6.2C5.7,6.6,5.7,7.1,6,7.5c0.2,0.2,0.4,0.3,0.6,0.3
		s0.5-0.1,0.6-0.3l3-3c0.1-0.1,0.1-0.2,0.2-0.3c0-0.1,0.1-0.2,0.1-0.3s0-0.2-0.1-0.3c0-0.1-0.1-0.2-0.2-0.3l-3-3
		C6.9-0.1,6.4-0.1,6,0.3C5.7,0.6,5.7,1.2,6,1.5L7.4,3H6.8c-3,0-5.5,2.4-5.5,5.5C1.3,8.9,1.7,9.3,2.2,9.3z"
		/>
		<path
			d="M21,0.3h-5.7c-1.6,0-2.9,1.3-2.9,2.9v5.7c0,1.6,1.3,2.9,2.9,2.9H21c1.6,0,2.9-1.3,2.9-2.9V3.2C23.9,1.6,22.6,0.3,21,0.3z
		 M22.1,8.9c0,0.6-0.5,1.1-1.1,1.1h-5.7c-0.6,0-1.1-0.5-1.1-1.1V3.2c0-0.6,0.5-1.1,1.1-1.1H21c0.6,0,1.1,0.5,1.1,1.1V8.9z"
		/>
		<path
			d="M21.7,14.8c-0.5,0-0.9,0.4-0.9,0.9c0,2-1.6,3.7-3.6,3.7h-0.6l1.4-1.4c0.4-0.4,0.4-0.9,0-1.3s-0.9-0.4-1.3,0l-2.8,2.8
		c-0.3,0.2-0.5,0.4-0.5,0.8c0,0,0,0,0,0c0,0.2,0.1,0.5,0.3,0.7l3,3c0.2,0.2,0.4,0.3,0.6,0.3s0.5-0.1,0.6-0.3c0.4-0.4,0.4-0.9,0-1.3
		l-1.5-1.5h0.7c3,0,5.5-2.4,5.5-5.5C22.6,15.2,22.2,14.8,21.7,14.8z"
		/>
	</g>
</svg>
