<!-- Generator: Adobe Illustrator 25.0.1, SVG Export Plug-In . SVG Version: 6.00 Build 0)  -->
<svg
	version="1.1"
	id="Réteg_3"
	xmlns="http://www.w3.org/2000/svg"
	xmlns:xlink="http://www.w3.org/1999/xlink"
	x="0px"
	y="0px"
	viewBox="0 0 22 24"
	style="enable-background:new 0 0 22 24;"
	xml:space="preserve"
>
	<path
		d="M21.2,4.8l-3.9-3.9C16.7,0.3,16,0,15.2,0H2.9C1.3,0,0,1.3,0,2.9v18.2C0,22.7,1.3,24,2.9,24h16.2c1.6,0,2.9-1.3,2.9-2.9V6.8
	C22,6.1,21.7,5.3,21.2,4.8z M4.9,1.8h7.4v1.7c0,0.6-0.5,1.1-1.1,1.1H6c-0.6,0-1.1-0.5-1.1-1.1V1.8z M17.3,22.2H4.8V14
	c0-0.6,0.5-1.1,1.1-1.1h10.3c0.6,0,1.1,0.5,1.1,1.1V22.2z M20.2,21.1c0,0.6-0.5,1.1-1.1,1.1h-0.1V14c0-1.6-1.3-2.9-2.9-2.9H5.9
	C4.3,11.1,3,12.4,3,14v8.2H2.9c-0.6,0-1.1-0.5-1.1-1.1V2.9c0-0.6,0.5-1.1,1.1-1.1h0.2v1.7c0,1.6,1.3,2.9,2.9,2.9h5.2
	c1.6,0,2.9-1.3,2.9-2.9V1.8h1.1c0.3,0,0.6,0.1,0.8,0.3l3.9,3.9c0.2,0.2,0.3,0.5,0.3,0.8V21.1z"
	/>
</svg>
