<!-- Generator: Adobe Illustrator 25.0.1, SVG Export Plug-In . SVG Version: 6.00 Build 0)  -->
<svg
	version="1.1"
	id="Réteg_2"
	xmlns="http://www.w3.org/2000/svg"
	xmlns:xlink="http://www.w3.org/1999/xlink"
	x="0px"
	y="0px"
	viewBox="0 0 30.8 23.9"
	style="enable-background:new 0 0 30.8 23.9;"
	xml:space="preserve"
>
	<g>
		<path
			d="M30.3,17.3L30.1,17c-0.4-0.7-0.9-1.2-1.5-1.6c0.4-0.5,0.6-1.1,0.6-1.8V2.9c0-1.6-1.3-2.9-2.9-2.9H4.6C3,0,1.7,1.3,1.7,2.9
		v10.8c0,0.7,0.2,1.3,0.6,1.8c-0.6,0.4-1.1,0.9-1.5,1.6l-0.2,0.3c-0.8,1.4-0.8,3,0,4.4s2.2,2.2,3.8,2.2h22c1.6,0,3-0.8,3.8-2.2
		S31.1,18.7,30.3,17.3z M4.6,14.7c-0.6,0-1.1-0.5-1.1-1.1V2.9c0-0.6,0.5-1.1,1.1-1.1h21.7c0.6,0,1.1,0.5,1.1,1.1v10.8
		c0,0.6-0.5,1.1-1.1,1.1h0H4.6L4.6,14.7z M28.7,20.8c-0.5,0.8-1.3,1.3-2.3,1.3h-22c-0.9,0-1.8-0.5-2.3-1.3s-0.5-1.8,0-2.6l0.2-0.3
		c0.5-0.8,1.3-1.3,2.3-1.3h21.6c0.9,0,1.8,0.5,2.3,1.3l0.2,0.3C29.2,19,29.2,20,28.7,20.8z"
		/>
		<path
			d="M17.7,8.3l-1.4,1.4V4.1c0-0.5-0.4-0.9-0.9-0.9s-0.9,0.4-0.9,0.9v5.5l-1.4-1.4c-0.4-0.4-0.9-0.4-1.3,0
		c-0.4,0.4-0.4,0.9,0,1.3l2.9,2.9c0.2,0.2,0.4,0.3,0.6,0.3s0.5-0.1,0.6-0.3L19,9.5c0.4-0.4,0.4-0.9,0-1.3
		C18.6,7.9,18.1,7.9,17.7,8.3z"
		/>
	</g>
</svg>
