<!-- Generator: Adobe Illustrator 25.0.1, SVG Export Plug-In . SVG Version: 6.00 Build 0)  -->
<svg
	version="1.1"
	id="Réteg_2"
	xmlns="http://www.w3.org/2000/svg"
	xmlns:xlink="http://www.w3.org/1999/xlink"
	x="0px"
	y="0px"
	viewBox="0 0 24 23.9"
	style="enable-background:new 0 0 24 23.9;"
	xml:space="preserve"
>
	<path
		d="M23.2,18.9C23.2,18.9,23.1,18.9,23.2,18.9l-7.1-7.1c0,0,0,0,0,0c0.5-1.1,0.7-2.2,0.7-3.4c0-2.2-0.9-4.4-2.5-5.9
	c-3.3-3.3-8.6-3.3-11.9,0s-3.3,8.6,0,11.9c1.6,1.6,3.7,2.5,5.9,2.5c1.2,0,2.4-0.3,3.4-0.7c0,0,0,0,0,0c0,0,0,0,0,0c0,0,0,0,0,0l7,7
	c0,0,0.1,0.1,0.1,0.1c0.6,0.5,1.3,0.7,2,0.7c0.8,0,1.5-0.3,2.1-0.9c0.6-0.6,0.9-1.3,0.9-2.1C24,20.2,23.7,19.5,23.2,18.9z M3.7,13.1
	c-2.6-2.6-2.6-6.8,0-9.3c1.3-1.3,3-1.9,4.7-1.9s3.4,0.6,4.7,1.9C14.3,5,15,6.6,15,8.4s-0.7,3.4-1.9,4.7c-1.2,1.2-2.9,1.9-4.7,1.9
	S5,14.3,3.7,13.1z M21.8,21.8c-0.5,0.5-1.2,0.5-1.7,0c0,0,0,0,0,0l-6.6-6.6c0.3-0.2,0.6-0.5,0.9-0.8s0.5-0.6,0.8-0.9l6.7,6.7
	c0.2,0.2,0.4,0.5,0.4,0.9C22.2,21.3,22,21.6,21.8,21.8z"
	/>
</svg>
