<!-- Generator: Adobe Illustrator 25.0.1, SVG Export Plug-In . SVG Version: 6.00 Build 0)  -->
<svg
	version="1.1"
	id="Réteg_2"
	xmlns="http://www.w3.org/2000/svg"
	xmlns:xlink="http://www.w3.org/1999/xlink"
	x="0px"
	y="0px"
	viewBox="0 0 23.4 23.9"
	style="enable-background:new 0 0 23.4 23.9;"
	xml:space="preserve"
>
	<g>
		<path
			d="M12.2,16.4l-4.4,4.4V0.9C7.8,0.4,7.4,0,6.9,0S6,0.4,6,0.9v19.9l-4.4-4.4c-0.4-0.4-0.9-0.4-1.3,0s-0.4,0.9,0,1.3l6,6
		c0.2,0.2,0.4,0.3,0.6,0.3s0.5-0.1,0.6-0.3l6-6c0.4-0.4,0.4-0.9,0-1.3S12.6,16,12.2,16.4z"
		/>
		<path
			d="M22.5,0h-12C10,0,9.6,0.4,9.6,0.9s0.4,0.9,0.9,0.9h12c0.5,0,0.9-0.4,0.9-0.9S23,0,22.5,0z"
		/>
		<path
			d="M19.4,5.4h-8.8c-0.5,0-0.9,0.4-0.9,0.9s0.4,0.9,0.9,0.9h8.8c0.5,0,0.9-0.4,0.9-0.9S19.9,5.4,19.4,5.4z"
		/>
		<path
			d="M16.2,10.9h-5.7c-0.5,0-0.9,0.4-0.9,0.9s0.4,0.9,0.9,0.9h5.7c0.5,0,0.9-0.4,0.9-0.9S16.7,10.9,16.2,10.9z"
		/>
	</g>
</svg>
