<!-- Generator: Adobe Illustrator 25.0.1, SVG Export Plug-In . SVG Version: 6.00 Build 0)  -->
<svg
 version="1.1" id="Réteg_3" xmlns="http://www.w3.org/2000/svg" xmlns:xlink="http://www.w3.org/1999/xlink" x="0px" y="0px"
	 viewBox="0 0 24 24" style="enable-background:new 0 0 24 24;" xml:space="preserve">
<g>
	<path d="M12,0C5.4,0,0,5.4,0,12c0,6.6,5.4,12,12,12c6.6,0,12-5.4,12-12C24,5.4,18.6,0,12,0z M12,22.2C6.4,22.2,1.8,17.6,1.8,12
		C1.8,6.4,6.4,1.8,12,1.8c5.6,0,10.2,4.6,10.2,10.2C22.2,17.6,17.6,22.2,12,22.2z"/>
	<path d="M17.3,7.4L10,14.7l-3.3-3.3c-0.4-0.4-0.9-0.4-1.3,0c-0.4,0.4-0.4,0.9,0,1.3l4,4c0.2,0.2,0.4,0.3,0.6,0.3s0.5-0.1,0.6-0.3
		l7.9-7.9c0.4-0.4,0.4-0.9,0-1.3C18.2,7,17.7,7,17.3,7.4z"/>
</g>
</svg>
