<svg width="4" height="18" viewBox="0 0 4 18" fill="none" xmlns="http://www.w3.org/2000/svg">
<g clip-path="url(#clip0_293_1217)">
<path d="M0.00818201 1.7998C-0.0146567 1.57226 0.0104465 1.34247 0.0818731 1.12524C0.1533 0.90801 0.269464 0.70816 0.422873 0.538581C0.576282 0.369002 0.763531 0.233459 0.972544 0.140694C1.18156 0.0479282 1.40769 0 1.63636 0C1.86504 0 2.09117 0.0479282 2.30018 0.140694C2.5092 0.233459 2.69645 0.369002 2.84986 0.538581C3.00326 0.70816 3.11943 0.90801 3.19085 1.12524C3.26228 1.34247 3.28738 1.57226 3.26455 1.7998L2.62964 12.1907C2.60511 12.4371 2.48987 12.6656 2.30632 12.8318C2.12276 12.998 1.88398 13.09 1.63636 13.09C1.38875 13.09 1.14997 12.998 0.966411 12.8318C0.782853 12.6656 0.667619 12.4371 0.643091 12.1907L0.00818201 1.7998ZM0 16.3634C0 15.9294 0.172402 15.5132 0.47928 15.2063C0.786158 14.8995 1.20237 14.7271 1.63636 14.7271C2.07035 14.7271 2.48657 14.8995 2.79345 15.2063C3.10032 15.5132 3.27273 15.9294 3.27273 16.3634C3.27273 16.7974 3.10032 17.2136 2.79345 17.5205C2.48657 17.8274 2.07035 17.9998 1.63636 17.9998C1.20237 17.9998 0.786158 17.8274 0.47928 17.5205C0.172402 17.2136 0 16.7974 0 16.3634Z" fill="#F1F1F1"/>
</g>
<defs>
<clipPath id="clip0_293_1217">
<rect width="3.27273" height="18" fill="white"/>
</clipPath>
</defs>
</svg>
