<svg width="45" height="41" viewBox="0 0 45 41" fill="none" xmlns="http://www.w3.org/2000/svg">
<g clip-path="url(#clip0_307_1214)">
<path d="M22.5001 40.1406C22.1994 40.1397 21.9074 40.0392 21.6698 39.8548C14.102 33.9748 8.88899 28.9115 5.24122 23.9162C0.586215 17.5326 -0.475452 11.639 2.08344 6.3987C3.90733 2.65565 9.1476 -0.406852 15.2726 1.3762C18.1929 2.21974 20.7408 4.02872 22.5001 6.50759C24.2594 4.02872 26.8073 2.21974 29.7276 1.3762C35.839 -0.37963 41.0929 2.65565 42.9168 6.3987C45.4757 11.639 44.414 17.5326 39.759 23.9162C36.1112 28.9115 30.8982 33.9748 23.3304 39.8548C23.0928 40.0392 22.8008 40.1397 22.5001 40.1406ZM11.7882 3.59481C10.3308 3.53809 8.88542 3.87935 7.6073 4.58196C6.32917 5.28456 5.26653 6.32199 4.53344 7.58287C2.42372 11.9112 3.37649 16.7295 7.44622 22.2965C11.7712 27.8751 16.8357 32.8388 22.5001 37.0509C28.1636 32.843 33.228 27.8839 37.554 22.3101C41.6373 16.7295 42.5765 11.9112 40.4668 7.59648C39.1057 4.87426 35.0223 2.71009 30.4762 3.98954C29.0185 4.42033 27.6672 5.15154 26.5091 6.13611C25.3511 7.12068 24.412 8.3368 23.7523 9.7062C23.6498 9.95584 23.4753 10.1694 23.2512 10.3196C23.027 10.4699 22.7632 10.5501 22.4933 10.5501C22.2234 10.5501 21.9596 10.4699 21.7354 10.3196C21.5113 10.1694 21.3368 9.95584 21.2343 9.7062C20.5796 8.33337 19.6421 7.11441 18.4833 6.12923C17.3246 5.14405 15.9707 4.41488 14.5104 3.98954C13.6256 3.73256 12.7095 3.59972 11.7882 3.59481Z" fill="#ABABAB"/>
</g>
<defs>
<clipPath id="clip0_307_1214">
<rect width="45" height="41" fill="white"/>
</clipPath>
</defs>
</svg>
