<svg width="38" height="35" viewBox="0 0 38 35" fill="none" xmlns="http://www.w3.org/2000/svg">
<path d="M37.0459 6.96979C36.4569 5.60589 35.6075 4.36993 34.5454 3.33112C33.4825 2.2892 32.2293 1.4612 30.854 0.892151C29.4279 0.299738 27.8983 -0.00349296 26.354 6.14062e-05C24.1875 6.14062e-05 22.0737 0.593323 20.2368 1.71393C19.7974 1.98199 19.3799 2.27643 18.9844 2.59723C18.5889 2.27643 18.1714 1.98199 17.7319 1.71393C15.895 0.593323 13.7812 6.14062e-05 11.6147 6.14062e-05C10.0547 6.14062e-05 8.54297 0.29889 7.11475 0.892151C5.73486 1.46344 4.49121 2.28522 3.42334 3.33112C2.35985 4.36876 1.5103 5.60501 0.922852 6.96979C0.312012 8.38922 0 9.89655 0 11.4478C0 12.9112 0.298828 14.4361 0.89209 15.9874C1.38867 17.2838 2.10059 18.6285 3.01025 19.9864C4.45166 22.1353 6.43359 24.3765 8.89453 26.6485C12.9727 30.4146 17.0112 33.0162 17.1826 33.1216L18.2241 33.7896C18.6855 34.084 19.2788 34.084 19.7402 33.7896L20.7817 33.1216C20.9531 33.0118 24.9873 30.4146 29.0698 26.6485C31.5308 24.3765 33.5127 22.1353 34.9541 19.9864C35.8638 18.6285 36.5801 17.2838 37.0723 15.9874C37.6655 14.4361 37.9644 12.9112 37.9644 11.4478C37.9688 9.89655 37.6567 8.38922 37.0459 6.96979Z" fill="#7C3AED"/>
</svg>
