<svg width="46" height="43" viewBox="0 0 46 43" fill="none" xmlns="http://www.w3.org/2000/svg">
<path d="M22.9997 7.90064L20.9383 5.78176C16.0997 0.808015 7.22745 2.52439 4.0247 8.77751C2.52107 11.7186 2.18182 15.965 4.92745 21.3844C7.57245 26.6025 13.0752 32.8528 22.9997 39.6608C32.9242 32.8528 38.4241 26.6025 41.0719 21.3844C43.8176 15.9621 43.4812 11.7186 41.9747 8.77751C38.7719 2.52439 29.8997 0.80514 25.0611 5.77889L22.9997 7.90064ZM22.9997 43.1251C-21.0827 13.9956 9.42682 -8.73986 22.4937 3.28626C22.6662 3.44439 22.8358 3.60826 22.9997 3.77789C23.1619 3.60842 23.3307 3.44538 23.5057 3.28914C36.5697 -8.74561 67.0821 13.9928 22.9997 43.1251Z" fill="black"/>
</svg>
