<svg width="18" height="18" viewBox="0 0 18 18" fill="none" xmlns="http://www.w3.org/2000/svg">
<g clip-path="url(#clip0_293_1213)">
<path d="M17.724 2.51357L16.5154 3.45857C14.8675 1.35214 12.3047 0 9.42682 0C4.45754 0 0.435391 4.01786 0.428963 8.98929C0.422534 13.965 4.45325 18 9.42682 18C13.3118 18 16.6225 15.5357 17.8825 12.0836C17.9147 11.9936 17.8675 11.8929 17.7775 11.8629L16.5625 11.445C16.5202 11.4305 16.4738 11.4331 16.4334 11.4523C16.3929 11.4716 16.3616 11.5058 16.3461 11.5479C16.3075 11.655 16.2647 11.7621 16.2197 11.8671C15.849 12.7457 15.3175 13.5343 14.6404 14.2114C13.9687 14.8844 13.1735 15.4213 12.2982 15.7929C11.3918 16.1764 10.4254 16.3714 9.43111 16.3714C8.43468 16.3714 7.47039 16.1764 6.56396 15.7929C5.68791 15.4229 4.89236 14.8857 4.22182 14.2114C3.54832 13.5398 3.01193 12.7436 2.64253 11.8671C2.25896 10.9586 2.06396 9.99429 2.06396 8.99786C2.06396 8.00143 2.25896 7.03714 2.64253 6.12857C3.01325 5.25 3.54468 4.46143 4.22182 3.78429C4.89896 3.10714 5.68753 2.57571 6.56396 2.20286C7.47039 1.81929 8.43682 1.62429 9.43111 1.62429C10.4275 1.62429 11.3918 1.81929 12.2982 2.20286C13.1743 2.57281 13.9698 3.10997 14.6404 3.78429C14.8525 3.99643 15.0518 4.22143 15.2361 4.45714L13.9461 5.46429C13.9206 5.48403 13.9011 5.51058 13.89 5.54088C13.8789 5.57117 13.8766 5.60399 13.8833 5.63555C13.89 5.66712 13.9055 5.69614 13.928 5.7193C13.9505 5.74245 13.979 5.75879 14.0104 5.76643L17.7732 6.68786C17.8804 6.71357 17.9854 6.63214 17.9854 6.52286L18.0025 2.64643C18.0004 2.505 17.8354 2.42571 17.724 2.51357V2.51357Z" fill="#F1F1F1"/>
</g>
<defs>
<clipPath id="clip0_293_1213">
<rect width="18" height="18" fill="white"/>
</clipPath>
</defs>
</svg>
