<svg width="16" height="18" viewBox="0 0 16 18" fill="none" xmlns="http://www.w3.org/2000/svg">
<g clip-path="url(#clip0_293_1215)">
<path d="M1.38462 17.9999C1.14751 18.0001 0.914605 17.9374 0.709621 17.8182C0.494151 17.7 0.314527 17.5259 0.18965 17.3142C0.0647739 17.1025 -0.000738567 16.8611 6.28127e-06 16.6153V1.38453C-0.000738567 1.13876 0.0647739 0.897335 0.18965 0.685654C0.314527 0.473973 0.494151 0.299864 0.709621 0.181647C0.921953 0.0579302 1.16419 -0.00507785 1.40989 -0.000499554C1.65559 0.00407874 1.89532 0.0760674 2.10289 0.207608L14.5644 7.81434C14.7687 7.93756 14.9376 8.11145 15.0549 8.31917C15.1722 8.52689 15.2338 8.76138 15.2338 8.99992C15.2338 9.23845 15.1722 9.47295 15.0549 9.68066C14.9376 9.88838 14.7687 10.0623 14.5644 10.1855L2.10289 17.7922C1.88819 17.9286 1.63896 18.0006 1.38462 17.9999ZM1.38462 1.38453V16.6153L13.8462 8.99992L1.38462 1.38453Z" fill="#F1F1F1"/>
</g>
<defs>
<clipPath id="clip0_293_1215">
<rect width="15.2308" height="18" fill="white"/>
</clipPath>
</defs>
</svg>
