<svg width="18" height="18" viewBox="0 0 18 18" fill="none" xmlns="http://www.w3.org/2000/svg">
<g clip-path="url(#clip0_293_1211)">
<path d="M0 2.57143C0 1.88944 0.270917 1.23539 0.753154 0.753154C1.23539 0.270917 1.88944 0 2.57143 0H13.3444C14.0264 0.000145639 14.6803 0.271159 15.1624 0.753429L17.2466 2.83757C17.7288 3.3197 17.9999 3.97364 18 4.65557V15.4286C18 16.1106 17.7291 16.7646 17.2468 17.2468C16.7646 17.7291 16.1106 18 15.4286 18H2.57143C1.88944 18 1.23539 17.7291 0.753154 17.2468C0.270917 16.7646 0 16.1106 0 15.4286V2.57143ZM2.57143 1.28571C2.23044 1.28571 1.90341 1.42117 1.66229 1.66229C1.42117 1.90341 1.28571 2.23044 1.28571 2.57143V15.4286C1.28571 15.7696 1.42117 16.0966 1.66229 16.3377C1.90341 16.5788 2.23044 16.7143 2.57143 16.7143V10.9286C2.57143 10.4171 2.77462 9.92654 3.13629 9.56487C3.49797 9.20319 3.98851 9 4.5 9H13.5C14.0115 9 14.502 9.20319 14.8637 9.56487C15.2254 9.92654 15.4286 10.4171 15.4286 10.9286V16.7143C15.7696 16.7143 16.0966 16.5788 16.3377 16.3377C16.5788 16.0966 16.7143 15.7696 16.7143 15.4286V4.65557C16.7142 4.31461 16.5787 3.98763 16.3376 3.74657L14.2534 1.66243C14.0124 1.42129 13.6854 1.28579 13.3444 1.28571H12.8571V4.5C12.8571 5.01149 12.654 5.50203 12.2923 5.86371C11.9306 6.22538 11.4401 6.42857 10.9286 6.42857H5.78571C5.27423 6.42857 4.78369 6.22538 4.42201 5.86371C4.06033 5.50203 3.85714 5.01149 3.85714 4.5V1.28571H2.57143ZM5.14286 1.28571V4.5C5.14286 4.6705 5.21059 4.83401 5.33115 4.95457C5.4517 5.07513 5.61522 5.14286 5.78571 5.14286H10.9286C11.0991 5.14286 11.2626 5.07513 11.3831 4.95457C11.5037 4.83401 11.5714 4.6705 11.5714 4.5V1.28571H5.14286ZM14.1429 16.7143V10.9286C14.1429 10.7581 14.0751 10.5946 13.9546 10.474C13.834 10.3534 13.6705 10.2857 13.5 10.2857H4.5C4.3295 10.2857 4.16599 10.3534 4.04543 10.474C3.92487 10.5946 3.85714 10.7581 3.85714 10.9286V16.7143H14.1429Z" fill="#F1F1F1"/>
</g>
<defs>
<clipPath id="clip0_293_1211">
<rect width="18" height="18" fill="white"/>
</clipPath>
</defs>
</svg>
